<?xml version="1.0" encoding="utf-8"?>
<?xml-stylesheet type="text/xsl" href="rss1.xsl"?>
<rss version="2.0" xmlns:atom="http://www.w3.org/2005/Atom" xmlns:content="http://purl.org/rss/1.0/modules/content/" xmlns:dc="http://purl.org/dc/elements/1.1/" xmlns:media="http://search.yahoo.com/mrss/">
<channel>
 <title>Getty</title>
 <link>http://www.gettyimg.com/</link>
 <atom:link href="http://www.gettyimg.com/" rel="self" type="application/rss+xml" />

 
                <item>
                <title><![CDATA[【HD Live Performances】WEB-RiP - Tinashe - NPR Tiny Desk Concert]]></title>
                <link><![CDATA[https://sharemania.us/threads/tinashe-npr-tiny-desk-concert.237382/]]></link>
                <description><![CDATA[<article>
<blockquote class="messageText SelectQuoteContainer ugc baseHtml">
<div style="text-align: center">
<div class="ToggleTriggerAnchor bbCodeSpoilerContainer">
<button type="button" class="button bbCodeSpoilerButton ToggleTrigger Tooltip JsOnly" data-target="> .SpoilerTarget"><span>Spoiler</span></button>
<div class="SpoilerTarget bbCodeSpoilerText">
<div class="bbCodeBlock bbCodeVfcHH HiddenContent">
<div class="attribution type">Hidden Content:</div>
<blockquote>You must either reply or click 'Like' to see the hidden information contained here.</blockquote>
</div></div>
</div></div>
<div class="messageTextEndMarker">&nbsp;</div>
</blockquote>
</article>]]></description>
                <author><![CDATA[iheartshania]]></author>
                </item>

                
                <item>
                <title><![CDATA[【HD Live Performances】UHDTV 4K - Paola e Chiara - Viva Rai2 Viva Sanremo [10-02-24] 2160p Rai4K]]></title>
                <link><![CDATA[https://sharemania.us/threads/paola-e-chiara-viva-rai2-viva-sanremo-10-02-24-2160p-rai4k.237383/]]></link>
                <description><![CDATA[<article>
<blockquote class="messageText SelectQuoteContainer ugc baseHtml">
<img src="https://i.imgur.com/xtoITMp.png" class="bbCodeImage LbImage" alt="[​IMG]" data-url="https://i.imgur.com/xtoITMp.png" style=""><br>
<br>
Setlist:<br>
(short medley) Festival, Furore, Solo Mai<br>
<br>
<div class="bbCodeBlock bbCodeCode">
<div class="type">Code:</div>
<pre>General
Complete name                            : Paola e Chiara - Viva Rai2 Viva Sanremo 10-02-24 2160p.mkv
Format                                   : Matroska
Format version                           : Version 4
File size                                : 194 MiB
Duration                                 : 2 min 40 s
Overall bit rate                         : 10.2 Mb/s
Encoded date                             : UTC 2024-02-10 01:39:16
Writing application                      : mkvmerge v55.0.0 ('Waiting For Space') 64-bit
Writing library                          : libebml v1.4.2 + libmatroska v1.6.4
Video
ID                                       : 1
Format                                   : HEVC
Format/Info                              : High Efficiency Video Coding
Format profile                           : Main 10@L5.1@Main
Codec ID                                 : V_MPEGH/ISO/HEVC
Duration                                 : 2 min 39 s
Bit rate                                 : 9 915 kb/s
Width                                    : 3 840 pixels
Height                                   : 2 160 pixels
Display aspect ratio                     : 16:9
Frame rate mode                          : Constant
Frame rate                               : 50.000 FPS
Color space                              : YUV
Chroma subsampling                       : 4:2:0
Bit depth                                : 10 bits
Bits/(Pixel*Frame)                       : 0.024
Stream size                              : 188 MiB (97%)
Language                                 : Italian
Default                                  : Yes
Forced                                   : No
Color range                              : Limited
Color primaries                          : BT.2020
Transfer characteristics                 : HLG / BT.2020 (10-bit)
Matrix coefficients                      : BT.2020 non-constant
Audio
ID                                       : 2
Format                                   : AAC LC
Format/Info                              : Advanced Audio Codec Low Complexity
Codec ID                                 : A_AAC-2
Duration                                 : 2 min 39 s
Bit rate                                 : 317 kb/s
Channel(s)                               : 2 channels
Channel layout                           : L R
Sampling rate                            : 48.0 kHz
Frame rate                               : 46.875 FPS (1024 SPF)
Compression mode                         : Lossy
Delay relative to video                  : -997 ms
Stream size                              : 6.05 MiB (3%)
Language                                 : Italian
Default                                  : Yes
Forced                                   : No
</pre>
</div>Pixeldrain:<br>
<div class="bbCodeBlock bbCodeVfcHH HiddenContent">
<div class="attribution type">Hidden Content:</div>
<blockquote>You must reply before you can see the hidden data contained here.</blockquote>
</div>
<div class="messageTextEndMarker">&nbsp;</div>
</blockquote>
</article>]]></description>
                <author><![CDATA[LLAVE1]]></author>
                </item>

                </channel></rss>